<svg xmlns="http://www.w3.org/2000/svg"><style>:root svg:not(:target){display:none}</style><svg viewBox="0 0 1200 57" fill="none" id="banner-flange"><path d="M249.6 23.7L0 0V57H249.6H600L249.6 0V23.7Z" fill="white"></path><path d="M950.4 23.7V0L600 57H950.4H1199.9V0L950.4 23.7Z" fill="white"></path></svg><svg viewBox="0 0 80 80" fill="none" id="burger"><path fill-rule="evenodd" clip-rule="evenodd" d="M72.5314 36.3747L72.5314 36.3739C72.5547 35.5459 72.5862 34.4289 72.5144 34.1408C71.8163 18.5181 57.4541 6 39.8005 6C22.147 6 7.68504 18.5181 6.98688 34.1408V37.1451H72.5144C72.5144 36.9766 72.5223 36.6976 72.5314 36.3747ZM39.8005 9.00435C55.7585 9.00435 68.9239 20.2206 69.5223 34.1408H9.979C10.6772 20.2206 23.8425 9.00435 39.8005 9.00435ZM23.2441 48.8621L17.8583 44.8563L12.3727 48.8621L5.9895 44.1553L7.78478 41.7518L12.3727 45.0566L17.8583 41.0508L23.2441 45.0566L28.7297 41.0508L34.2152 45.0566L39.7008 41.0508L45.0866 45.0566L50.5722 41.0508L56.0577 45.0566L61.5433 41.0508L67.0289 45.0566L71.6168 41.7518L73.3123 44.1553L67.0289 48.8621L61.5433 44.8563L56.0577 48.8621L50.5722 44.8563L45.0866 48.8621L39.7008 44.8563L34.2152 48.8621L28.7297 44.8563L23.2441 48.8621ZM6.28871 52.0667H73.7113C76.105 52.0667 78 54.0696 78 56.2727V59.7778C78 62.1813 76.0053 64.0841 73.7113 64.0841H72.7139V65.0855C72.7139 70.4934 68.3255 74.9999 62.8399 74.9999H17.1601C11.7743 74.9999 7.28609 70.5935 7.28609 65.0855V64.0841H6.28871C3.89501 64.0841 2 62.1813 2 59.878V56.3729C2 54.0696 3.89501 52.0667 6.28871 52.0667ZM62.9396 71.9955C66.7297 71.9955 69.8215 68.891 69.8215 65.0855V64.0841H10.1785V65.0855C10.1785 68.891 13.2703 71.9955 17.0604 71.9955H62.9396ZM73.7113 61.0797C74.4095 61.0797 75.0079 60.4788 75.0079 59.7778H75.1076V56.3729C75.1076 55.6719 74.5092 55.071 73.811 55.071H6.28871C5.59055 55.071 4.99213 55.6719 4.99213 56.2727V59.7778C4.99213 60.4788 5.59055 61.0797 6.28871 61.0797H73.7113ZM41.895 21.6228C41.895 22.7289 41.0019 23.6257 39.9003 23.6257C38.7986 23.6257 37.9055 22.7289 37.9055 21.6228C37.9055 20.5166 38.7986 19.6199 39.9003 19.6199C41.0019 19.6199 41.895 20.5166 41.895 21.6228ZM31.9213 18.6184C33.0229 18.6184 33.916 17.7216 33.916 16.6155C33.916 15.5093 33.0229 14.6125 31.9213 14.6125C30.8196 14.6125 29.9265 15.5093 29.9265 16.6155C29.9265 17.7216 30.8196 18.6184 31.9213 18.6184ZM49.874 16.6155C49.874 17.7216 48.9809 18.6184 47.8793 18.6184C46.7776 18.6184 45.8845 17.7216 45.8845 16.6155C45.8845 15.5093 46.7776 14.6125 47.8793 14.6125C48.9809 14.6125 49.874 15.5093 49.874 16.6155Z" fill="#81B3D2"></path></svg><svg viewBox="0 0 320 37" fill="none" id="heading-decore"><path fill-rule="evenodd" clip-rule="evenodd" d="M-225 0H159V37L-225 0Z" fill="white"></path><path fill-rule="evenodd" clip-rule="evenodd" d="M543 0H159V37L543 0Z" fill="white"></path></svg><svg viewBox="0 0 80 80" fill="none" id="house"><path fill-rule="evenodd" clip-rule="evenodd" d="M75.8916 43.1823L78 41.0939L68.0602 31.2486V4.39779H54.2048V17.5249L40.4498 4L3 41.1934L5.10843 43.2818L12.9398 35.5249V73.116H9.0241V76H73.1807V73.116H68.0602V35.4254L75.8916 43.1823ZM57.1165 7.38122H65.0482V28.3646L57.1165 20.5083V7.38122ZM65.0482 73.0166H15.9518V32.5414L40.4498 8.1768L65.0482 32.5414V73.0166ZM33.1206 68.5414H49.1849V44.7734H33.1206V68.5414ZM46.1728 65.6574H36.0323V47.6574H46.1728V65.6574ZM40.8515 39.3039C36.6347 39.3039 33.1206 35.8232 33.1206 31.547C33.1206 27.2707 36.5343 23.8895 40.8515 23.8895C45.1688 23.8895 48.6829 27.2707 48.6829 31.547C48.6829 35.8232 45.1688 39.3039 40.8515 39.3039ZM45.8716 31.547C45.8716 28.7625 43.5624 26.5746 40.8515 26.5746C38.1407 26.5746 35.8315 28.8619 35.8315 31.547C35.8315 34.3315 38.1407 36.5194 40.8515 36.5194C43.6628 36.5194 45.8716 34.2321 45.8716 31.547ZM23.0803 44.7734H20.0683V48.6519H23.0803V44.7734ZM26.0924 44.7734H29.1044V48.6519H26.0924V44.7734ZM23.0803 50.7404H20.0683V54.6188H23.0803V50.7404ZM26.0924 50.7404H29.1044V54.6188H26.0924V50.7404ZM55.2088 44.7734H52.1968V48.6519H55.2088V44.7734ZM58.2209 44.7734H61.2329V48.6519H58.2209V44.7734ZM55.2088 50.7404H52.1968V54.6188H55.2088V50.7404ZM58.2209 50.7404H61.2329V54.6188H58.2209V50.7404Z" fill="#81B3D2"></path></svg><svg viewBox="0 0 16 12" fill="none" id="mail"><path d="M8 8C7.7 8 7.5 7.9 7 7.7L0 4V11C0 11.5 0.5 12 1 12H15C15.5 12 16 11.5 16 11V4L9 7.7C8.5 7.9 8.3 8 8 8ZM15 0H1C0.5 0 0 0.5 0 1V1.8L8 6L16 1.8V1C16 0.5 15.5 0 15 0Z" fill="black"></path></svg><svg viewBox="0 0 18 18" fill="none" id="phone"><path d="M3.6 7.8C5 10.6 7.4 12.9 10.2 14.4L12.4 12.2C12.7 11.9 13.1 11.8 13.4 12C14.5 12.4 15.7 12.6 17 12.6C17.6 12.6 18 13 18 13.6V17C18 17.6 17.6 18 17 18C7.6 18 0 10.4 0 1C0 0.4 0.4 0 1 0H4.5C5.1 0 5.5 0.4 5.5 1C5.5 2.2 5.7 3.4 6.1 4.6C6.2 4.9 6.1 5.3 5.9 5.6L3.6 7.8Z" fill="#010101"></path></svg><svg viewBox="0 0 80 80" fill="none" id="present"><path d="M69.2 25.1167H69.1H44.8C58.4 18.3189 59.5 14.0202 59 11.621C57.9 7.72221 53.4 4.72316 49.2 6.32266C43.7 8.42199 42.2 16.6194 40.7 22.5175C38.8 16.5194 37 8.92183 32.7 5.02307C31.5 3.92341 29.7 2.82376 27 3.0237C23 3.42357 17.3 8.32202 19.7 13.8203C21.9 19.1186 29.2 22.5175 34.1 25.2167H11.8C10.2 25.2167 9 26.5163 9 28.0158V39.2123C9 40.8118 10.3 42.0114 11.8 42.0114H12.1V78H69.1V42.0114H69.2C70.8 42.0114 72 40.7118 72 39.2123V28.0158C72 26.4163 70.7 25.1167 69.2 25.1167ZM50.8 8.82187C52.9 8.52196 55.7 10.1215 56 12.0209C56.4 14.72 52.7 17.2192 51 18.3189C48.5 20.0183 46.1 20.918 43.8 22.3176C44.6 18.6188 46.3 9.42168 50.8 8.82187ZM28.2 18.6188C26 17.1192 21.8 14.2202 21.9 10.9212C22 7.32234 27.6 4.42326 30.6 7.1224C34.4 10.4214 36.2 18.1189 37.6 23.5172C34.4 21.9177 31.4 20.7181 28.2 18.6188ZM34.1 75.0009H15V42.0114H34.1V75.0009ZM34.1 39.0123H12V28.1158H34.1V39.0123ZM44.1 75.0009H37V28.1158H44.1V75.0009ZM66.1 75.0009H47.1V42.0114H66.2V75.0009H66.1ZM69 39.0123H47.1V28.1158H69V39.0123Z" fill="#81B3D2"></path></svg></svg>